<svg xmlns="http://www.w3.org/2000/svg" viewBox="0 0 960 640" role="img" aria-labelledby="title desc">
  <title id="title">Preventive care placeholder image</title>
  <desc id="desc">A clean health assessment scene with a clipboard, heart, and wellness markers.</desc>
  <defs>
    <linearGradient id="bg" x1="0" x2="1" y1="0" y2="1">
      <stop offset="0" stop-color="#F7FCFD"/>
      <stop offset="0.58" stop-color="#E7F7FA"/>
      <stop offset="1" stop-color="#FFFFFF"/>
    </linearGradient>
    <linearGradient id="navy" x1="0" x2="1">
      <stop offset="0" stop-color="#1A3557"/>
      <stop offset="1" stop-color="#244B78"/>
    </linearGradient>
    <filter id="shadow" color-interpolation-filters="sRGB" x="-20%" y="-20%" width="140%" height="140%">
      <feDropShadow dx="0" dy="24" stdDeviation="26" flood-color="#1A3557" flood-opacity="0.14"/>
    </filter>
  </defs>
  <rect width="960" height="640" fill="url(#bg)"/>
  <path d="M0 480c180-88 276-48 420-88 174-48 245-172 540-128v376H0z" fill="#DDF3F7"/>
  <g opacity="0.22" stroke="#1A3557" stroke-width="2">
    <path d="M104 92h752M104 172h752M104 252h752M104 332h752M104 412h752M104 492h752"/>
    <path d="M152 52v536M272 52v536M392 52v536M512 52v536M632 52v536M752 52v536"/>
  </g>
  <g filter="url(#shadow)">
    <rect x="270" y="92" width="420" height="500" rx="44" fill="#FFFFFF"/>
    <rect x="318" y="148" width="324" height="68" rx="20" fill="#EEF8FA"/>
    <rect x="398" y="118" width="164" height="64" rx="22" fill="url(#navy)"/>
    <path d="M456 150h48M480 126v48" stroke="#FFFFFF" stroke-width="18" stroke-linecap="round"/>
    <g fill="none" stroke-linecap="round" stroke-linejoin="round">
      <path d="M363 294h234" stroke="#D8E1E7" stroke-width="18"/>
      <path d="M363 374h234" stroke="#D8E1E7" stroke-width="18"/>
      <path d="M363 454h150" stroke="#D8E1E7" stroke-width="18"/>
      <path d="M344 286l25 25 48-58" stroke="#1A3557" stroke-width="16"/>
      <path d="M344 366l25 25 48-58" stroke="#1A3557" stroke-width="16"/>
      <path d="M344 446l25 25 48-58" stroke="#C9A84C" stroke-width="16"/>
    </g>
  </g>
  <circle cx="722" cy="192" r="78" fill="#FFFFFF" filter="url(#shadow)"/>
  <path d="M722 234s-54-31-54-70c0-23 29-34 54-6 25-28 54-17 54 6 0 39-54 70-54 70z" fill="#C9A84C"/>
</svg>
